<?xml version="1.0" encoding="UTF-8" standalone="no"?>
<!-- Created with Inkscape (http://www.inkscape.org/) -->

<svg
   xmlns:dc="http://purl.org/dc/elements/1.1/"
   xmlns:cc="http://creativecommons.org/ns#"
   xmlns:rdf="http://www.w3.org/1999/02/22-rdf-syntax-ns#"
   xmlns:svg="http://www.w3.org/2000/svg"
   xmlns="http://www.w3.org/2000/svg"
   version="1.1"
   width="100"
   height="100"
   id="svg4002">
  <defs
     id="defs3" />
  <metadata
     id="metadata4">
    <rdf:RDF>
      <cc:Work
         rdf:about="">
        <dc:format>image/svg+xml</dc:format>
        <dc:type
           rdf:resource="http://purl.org/dc/dcmitype/StillImage" />
        <dc:title></dc:title>
      </cc:Work>
    </rdf:RDF>
  </metadata>
  <g
     transform="translate(-163.75243,-741.8125)"
     id="layer3"
     style="display:none">
    <path
       d="m 368.70568,503.88996 0,62.52085 c 300,-10 203.90025,-436.96466 0,-439.26066 -202.34815,-2.27853 -289.068129,421.14618 0,456.5473 0,0 98.99495,-17.49917 69.19545,5.22926 0,0 -134.3297,1.05626 -134.3297,14.81679 0,18.52883 134.3297,9.3557 134.3297,23.64141 0,12.85714 -134.3297,3.97681 -134.3297,19.69109 0,20 134.3297,-3.42097 134.3297,19.30746 0,20.20305 -134.3297,-1.07143 -134.3297,25.19254 0,22.72843 65.13425,26.97825 65.13425,0.71428 0,0 0,-76.97174 0,-188.40032 z"
       id="path4556"
       style="fill:none;stroke:#333333;stroke-width:10.92047215;stroke-linecap:round;stroke-linejoin:round;stroke-miterlimit:4;stroke-opacity:1;stroke-dasharray:none" />
  </g>
  <g
     transform="translate(-163.75243,-741.8125)"
     id="g4652"
     style="display:none">
    <path
       d="m 212.60847,809.28352 0.14392,10.77999 c 24.17432,-0.82811 12.03061,3.38933 25.57286,-27.10803 13.37771,-30.12683 -4.64587,-49.39096 -25.71678,-49.56138 -15.01863,-0.12145 -37.98762,19.45306 -22.90131,49.81197 12.92916,26.01795 2.18271,26.02933 22.83618,26.98793 0,0 14.30999,-0.0121 9.88658,3.36168 0,0 -19.4899,-1.49261 -19.4899,0.54999 0,2.7504 19.93974,1.38875 19.93974,3.5093 0,1.9085 -19.93974,0.59031 -19.93974,2.92292 0,2.96878 19.93974,-0.5078 19.93974,2.86598 0,2.99892 -19.93974,-0.15904 -19.93974,3.73955 0,3.37378 9.66845,4.00462 9.66845,0.10603 0,0 0,-11.42559 0,-27.96593 z"
       id="path4654"
       style="fill:none;stroke:#333333;stroke-width:1.62102199;stroke-linecap:round;stroke-linejoin:round;stroke-miterlimit:4;stroke-opacity:1;stroke-dasharray:none" />
  </g>
  <g
     transform="translate(-163.75243,-741.8125)"
     id="g3013"
     style="display:inline">
    <path
       d="m 212.60847,809.28352 0.14392,10.77999 c 24.17432,-0.82811 12.03061,3.38933 25.57286,-27.10803 13.37771,-30.12683 -4.64587,-49.39096 -25.71678,-49.56138 -15.01863,-0.12145 -37.98762,19.45306 -22.90131,49.81197 12.92916,26.01795 2.18271,26.02933 22.83618,26.98793 0,0 14.30999,-0.0121 9.88658,3.36168 0,0 -19.4899,-1.49261 -19.4899,0.54999 0,2.7504 19.93974,1.38875 19.93974,3.5093 0,1.9085 -19.93974,0.59031 -19.93974,2.92292 0,2.96878 19.93974,-0.5078 19.93974,2.86598 0,2.99892 -19.93974,-0.15904 -19.93974,3.73955 0,3.37378 9.66845,4.00462 9.66845,0.10603 0,0 0,-11.42559 0,-27.96593 z"
       id="path3015"
       style="fill:#fdfdff;fill-opacity:1;stroke:#333333;stroke-width:1.62102199;stroke-linecap:round;stroke-linejoin:round;stroke-miterlimit:4;stroke-opacity:1;stroke-dasharray:none" />
    <path
       d="m 45.947996,77.387706 c -0.196429,-0.01518 -1.040179,-0.07146 -1.875,-0.125052 -4.87772,-0.313161 -6.721981,-0.76009 -7.849676,-1.902251 C 35.406308,74.532909 35.053761,73.662946 33.884166,69.588184 32.050482,63.199791 30.472128,58.930526 28.02506,53.73997 24.734765,46.760818 24.076581,45.107519 23.102082,41.373898 20.390948,30.986659 22.296975,21.050794 28.488822,13.293541 33.700545,6.7642054 41.792476,2.4472021 48.822597,2.4455783 c 1.260399,-2.912e-4 2.954303,0.1253884 4.357542,0.3233087 9.808484,1.3834406 17.929921,6.9828591 22.047458,15.200874 4.026363,8.036046 4.093241,17.88161 0.195065,28.717134 -0.524886,1.458993 -0.924328,2.437307 -2.344862,5.743035 -2.699833,6.282787 -4.411342,11.106443 -6.246416,17.604683 -0.842691,2.984079 -1.230539,4.170484 -1.614973,4.940117 -0.604553,1.210305 -1.324343,1.712748 -2.829725,1.975265 -0.882864,0.153958 -4.132553,0.2806 -9.214369,0.359088 l -3.311394,0.05114 -0.05914,-3.097038 c -0.03253,-1.703372 -0.05914,-3.951116 -0.05914,-4.994987 l 0,-1.897947 0.602678,-0.05683 c 5.703167,-0.537746 9.314089,-2.759093 10.386681,-6.389622 0.177485,-0.600757 0.200136,-0.910819 0.231285,-3.16598 0.01899,-1.375 0.0032,-7.732372 -0.03502,-14.127495 L 60.85871,32.002838 60.611292,31.755332 60.363873,31.507827 57.843434,31.483769 C 36.503184,31.28007 37.851367,31.262626 37.5912,31.745804 c -0.08766,0.162801 -0.131532,3.264351 -0.200326,14.162311 -0.09973,15.798996 -0.142075,14.681901 0.614967,16.224712 0.501124,1.021267 1.113467,1.779315 2.009919,2.488174 1.841005,1.455752 4.756011,2.474671 7.628665,2.666543 l 0.357142,0.02385 0.02306,5.066965 0.02306,5.066964 -0.871272,-0.01501 c -0.4792,-0.0083 -1.031987,-0.02743 -1.228416,-0.04261 z"
       transform="translate(163.75243,741.8125)"
       id="path3805"
       style="color:#000000;fill:#fdfdff;fill-opacity:1;fill-rule:nonzero;stroke:none;stroke-width:0.1447341;marker:none;visibility:visible;display:inline;overflow:visible;enable-background:accumulate" />
    <path
       d="M 45.144425,77.348116 C 39.406682,76.995683 37.399563,76.551073 36.238149,75.375232 35.402233,74.528931 35.072414,73.715003 33.838859,69.454255 32.738986,65.655247 32.1851,63.943107 31.195941,61.284613 30.271862,58.801029 29.178365,56.195468 28.06709,53.829255 25.751398,48.898505 25.329949,47.965073 24.761432,46.507827 20.30857,35.094064 21.067523,24.233838 26.932817,15.436398 29.894869,10.993575 34.004077,7.3683228 38.715853,5.0410925 42.899048,2.9749377 46.6229,2.2049028 50.873495,2.5270803 c 7.667463,0.581162 14.341653,3.513684 19.317783,8.4878957 7.452456,7.449581 9.868604,18.257517 6.816774,30.492851 -0.82352,3.301643 -1.869283,6.208898 -3.918246,10.892857 -2.419939,5.532014 -4.341472,10.9447 -6.212595,17.5 -0.900648,3.155335 -1.277497,4.30668 -1.6608,5.074046 -0.604553,1.210305 -1.324343,1.712748 -2.829725,1.975265 -0.880627,0.153568 -4.112467,0.279905 -9.214349,0.360201 l -3.311374,0.05212 -0.05916,-3.098081 c -0.03254,-1.703945 -0.05916,-3.952158 -0.05916,-4.996029 l 0,-1.897947 0.602678,-0.05683 c 5.703167,-0.537746 9.314089,-2.759093 10.386681,-6.389622 0.177485,-0.600757 0.200136,-0.910819 0.231285,-3.16598 0.01899,-1.375 0.0032,-7.732372 -0.03502,-14.127495 L 60.85871,32.002838 60.611292,31.755332 60.363873,31.507827 57.843434,31.483769 C 36.503184,31.28007 37.851367,31.262626 37.5912,31.745804 c -0.08766,0.162801 -0.131532,3.264351 -0.200326,14.162311 -0.09973,15.798996 -0.142075,14.681901 0.614967,16.224712 0.501124,1.021267 1.113467,1.779315 2.009919,2.488174 1.841005,1.455752 4.756011,2.474671 7.628665,2.666543 l 0.357142,0.02385 0.02306,5.066965 0.02306,5.066964 -0.871272,-0.01296 c -0.4792,-0.0071 -1.393595,-0.04504 -2.031987,-0.08425 z"
       transform="translate(163.75243,741.8125)"
       id="path3821"
       style="color:#000000;fill:#fdfdff;fill-opacity:1;fill-rule:nonzero;stroke:none;stroke-width:0.1447341;marker:none;visibility:visible;display:inline;overflow:visible;enable-background:accumulate" />
  </g>
  <g
     transform="translate(-163.75243,-741.8125)"
     id="layer1"
     style="display:inline">
    <path
       d="m 223.81011,774.14631 -21.74171,-0.1827 -0.1827,27.0401 c 0,9.77463 22.01576,9.77463 22.01576,-0.0913 z"
       id="path4541"
       style="fill:#a7c6da;fill-opacity:1;fill-rule:nonzero;stroke:#586994;stroke-width:1.58315277;stroke-linecap:round;stroke-linejoin:round;stroke-miterlimit:4;stroke-opacity:1;stroke-dasharray:none" />
    <path
       d="m 212.60847,802.84338 0,4.68937 z"
       id="path4564-6"
       style="fill:none;stroke:#333333;stroke-width:0.52478468;stroke-linecap:square;stroke-linejoin:miter;stroke-miterlimit:4;stroke-opacity:1;stroke-dasharray:none;display:inline" />
    <g
       transform="matrix(0.14843883,0,0,0.14843883,157.87748,734.55699)"
       id="g4586"
       style="display:inline">
      <path
         d="m 368.93365,416.53149 0,37.14286 z"
         id="path4564"
         style="fill:none;stroke:#222a68;stroke-width:14.46377945;stroke-linecap:round;stroke-linejoin:round;stroke-miterlimit:4;stroke-opacity:1;stroke-dasharray:none" />
    </g>
  </g>
  <g
     transform="translate(-163.75243,-741.8125)"
     id="layer4"
     style="display:none">
    <text
       x="103.00583"
       y="812.60938"
       id="text4611"
       xml:space="preserve"
       style="font-size:40px;font-style:normal;font-variant:normal;font-weight:normal;font-stretch:normal;line-height:125%;letter-spacing:0px;word-spacing:0px;fill:#333333;fill-opacity:1;stroke:none;font-family:Metropolis;-inkscape-font-specification:Metropolis"><tspan
         x="103.00583"
         y="812.60938"
         id="tspan4613"
         style="font-size:72px;font-weight:bold;fill:#333333;fill-opacity:1;-inkscape-font-specification:Metropolis Bold">H@ck Potsdam</tspan></text>
    <text
       x="103.49093"
       y="868.26208"
       id="text4615"
       xml:space="preserve"
       style="font-size:40px;font-style:normal;font-variant:normal;font-weight:normal;font-stretch:normal;line-height:125%;letter-spacing:0px;word-spacing:0px;fill:#000000;fill-opacity:1;stroke:none;font-family:Metropolis;-inkscape-font-specification:Metropolis"><tspan
         x="103.49093"
         y="868.26208"
         id="tspan4617">Where Creative Minds Collab.</tspan></text>
    <text
       x="209.08128"
       y="939.38751"
       id="text4619"
       xml:space="preserve"
       style="font-size:40px;font-style:normal;font-variant:normal;font-weight:normal;font-stretch:normal;line-height:125%;letter-spacing:0px;word-spacing:0px;fill:#333333;fill-opacity:1;stroke:none;font-family:Metropolis;-inkscape-font-specification:Metropolis"><tspan
         x="209.08128"
         y="939.38751"
         id="tspan4621"
         style="font-size:32px;font-style:normal;font-variant:normal;font-weight:normal;font-stretch:normal;fill:#333333;fill-opacity:1;font-family:Lato;-inkscape-font-specification:Lato">March 4th &amp; 5th, 2017</tspan></text>
  </g>
</svg>
